<?xml version="1.0" standalone="no"?><!DOCTYPE svg PUBLIC "-//W3C//DTD SVG 1.1//EN" "http://www.w3.org/Graphics/SVG/1.1/DTD/svg11.dtd"><svg t="1726159647413" class="icon" viewBox="0 0 1024 1024" version="1.1" xmlns="http://www.w3.org/2000/svg" p-id="1510" xmlns:xlink="http://www.w3.org/1999/xlink" width="200" height="200"><path d="M896 96 128 96C92.8 96 64 124.8 64 160l0 512c0 35.2 28.8 64 64 64l352 0 0 128-160 0c-19.2 0-32 12.8-32 32s12.8 32 32 32l384 0c19.2 0 32-12.8 32-32s-12.8-32-32-32l-160 0 0-128 352 0c35.2 0 64-28.8 64-64L960 160C960 124.8 931.2 96 896 96zM896 672 128 672 128 160l768 0L896 672z" p-id="1511"></path></svg>