<?xml version="1.0" standalone="no"?><!DOCTYPE svg PUBLIC "-//W3C//DTD SVG 1.1//EN" "http://www.w3.org/Graphics/SVG/1.1/DTD/svg11.dtd"><svg t="1726107687936" class="icon" viewBox="0 0 1024 1024" version="1.1" xmlns="http://www.w3.org/2000/svg" p-id="9871" xmlns:xlink="http://www.w3.org/1999/xlink" width="200" height="200"><path d="M76.8 151.04A28.16 28.16 0 0 0 48.64 179.2v665.6a28.16 28.16 0 0 0 28.16 28.16h870.4a28.16 28.16 0 0 0 28.16-28.16V179.2a28.16 28.16 0 0 0-28.16-28.16H76.8z m0-46.08h870.4c41.00096 0 74.24 33.23904 74.24 74.24v665.6c0 41.00096-33.23904 74.24-74.24 74.24H76.8C35.79904 919.04 2.56 885.80096 2.56 844.8V179.2c0-41.00096 33.23904-74.24 74.24-74.24zM870.4 563.2c-28.27776 0-51.2-22.92224-51.2-51.2s22.92224-51.2 51.2-51.2 51.2 22.92224 51.2 51.2-22.92224 51.2-51.2 51.2z" fill="#000000" p-id="9872"></path></svg>